# xmcd
#
# Track frame offsets: 
#        182
#        23662
#        48967
#        65572
#        88020
#        105292
#        126855
#        143322
#        166497
#        188157
#        207792
#
# Disc length: 3072 seconds
#
# Revision: 10
# Processed by: cddbd v1.5.2PL0 Copyright (c) Steve Scherf et al.
# Submitted via: ExactAudioCopy v0.99pb4
#
DISCID=880bfe0b
DTITLE=The Wallflowers - Bringing Down The Horse
DYEAR=1996
DGENRE=Rock
TTITLE0=One Headlight
TTITLE1=6Th Avenue Heartache
TTITLE2=Bleeders
TTITLE3=Three Marlenas
TTITLE4=The Difference
TTITLE5=Invisible City
TTITLE6=Laughing Out Loud
TTITLE7=Josephine
TTITLE8=God Don't Make Lonely Girls
TTITLE9=Angel On My Bike
TTITLE10=I Wish I Felt Nothing
EXTD=Produced by T-Bone Burnell\nEngineered by Toby Wright, Neal Avron
EXTD=, Jon Schiff and Tom Lorde-Alge\nMixed by TomLord-Alge\nProduction 
EXTD=Coordinator: Valerie Pack\nRecorded at Sunset Sound, Grove Master
EXTD=s, O'Henry Studios,\n  House of BLues West and Brooklyn Studios, al
EXTD=l in LA, Calif.\nMixed at Record One in LA, Calif.\n\n--cloudmast
EXTD=er@bigfoot.com ID3G: 12
EXTT0=
EXTT1=
EXTT2=
EXTT3=Andy Wallace helped with mixing
EXTT4=
EXTT5=Andy Wallace helped with mixing
EXTT6=
EXTT7=
EXTT8=
EXTT9=
EXTT10=
PLAYORDER=
